<?xml version="1.0" encoding="utf-8"?>
<!-- Generator: Adobe Illustrator 19.2.0, SVG Export Plug-In . SVG Version: 6.00 Build 0)  -->
<svg version="1.1" id="Layer_1" xmlns="http://www.w3.org/2000/svg" xmlns:xlink="http://www.w3.org/1999/xlink" x="0px" y="0px"
	 viewBox="0 0 160 66" style="enable-background:new 0 0 160 66;" xml:space="preserve">
<style type="text/css">
	.st0{fill:#FFFFFF;}
</style>
<g>
	<path class="st0" d="M15.3,14.6c4.4,0.4,5.9,3.1,5.9,7.8c0,6-2.8,7.6-9.6,7.6C6.3,30,3.5,30,0,29.7V0.5c3.1-0.3,5.7-0.3,10.3-0.3
		c7.4,0,10,1.6,10,7.6c0,4.2-1.4,6.4-5,6.7V14.6z M5.2,4.4v8.2h5.3c3.6,0,4.7-0.8,4.7-4.2c0-3.3-1.3-4-5.2-4H5.2z M10.8,25.8
		c3.9,0,5.2-0.8,5.2-4.3c0-3.9-1.3-4.9-5.3-5H5.2v9.2L10.8,25.8z"/>
	<path class="st0" d="M26.6,29.7V0.5h5.3v29.2H26.6z"/>
	<path class="st0" d="M57.7,29.7H37.1v-4.3L51.5,4.8H37.3V0.5h20v4.3L42.9,25.4h14.7V29.7z"/>
	<path class="st0" d="M82,29.7H61.4v-4.3L75.8,4.8H61.7V0.5h20v4.3L67.3,25.4H82V29.7z"/>
	<path class="st0" d="M91.9,21.4l-2.4,8.3h-5.4l8.8-27.8c0.3-0.9,1-1.4,1.9-1.4h5.2c0.9,0,1.7,0.5,1.9,1.4l8.8,27.8h-5.4l-2.4-8.3
		H91.9z M98.6,7c-0.2-0.8-0.5-1.7-0.6-2.5h-1.1L96.1,7l-2.9,10.1h8.3L98.6,7z"/>
	<path class="st0" d="M130.3,29.7l-2.3-9.1c-0.6-1.9-1.6-2.6-3.4-2.6h-5.3v11.7h-5.3V0.5c3.3-0.3,5.6-0.4,10.6-0.4
		c7.2,0,10.2,1.9,10.2,8.6c0,4.4-1.4,6.9-5.5,7.4v0.2c1.4,0.3,3.3,1.5,3.9,4.3l2.6,9.2H130.3z M124.6,13.6c3.7,0,4.9-1.1,4.9-4.7
		c0-3.6-1.2-4.5-4.9-4.5h-5.3v9.2H124.6z"/>
	<path class="st0" d="M159.7,29.4c-3.9,0.3-8.6,0.3-12.9,0.3c-3.9,0-6.2-2.1-6.3-5.6V5.9c0-3.4,2.5-5.6,6.3-5.6c4.3,0,9,0,12.9,0.3
		l-0.3,4.1H148c-1.5,0-2.1,0.6-2.1,2.5v5.1h12v4.1h-12V23c0,1.8,0.6,2.5,2.1,2.5h11.4L159.7,29.4z"/>
	<path class="st0" d="M10.4,34.8c-3.2,0-4.5,1.3-4.5,4.4V50h19.3v4.8H5.9v21.4H0V38.1c0-5.3,3.5-8.3,8.9-8.3c6.4,0,13.2,0,19.2,0.5
		l-0.3,4.6H10.4z"/>
	<path class="st0" d="M70.7,53c0,18.1-4.8,24-18.3,24c-13.5,0-18.3-5.9-18.3-24c0-18.1,4.8-24,18.3-24C65.9,29,70.7,34.9,70.7,53z
		 M40.3,53c0,14.2,3,18.7,12.1,18.7c9.1,0,12.1-4.6,12.1-18.7c0-14.2-3-18.7-12.1-18.7C43.3,34.3,40.3,38.9,40.3,53z"/>
	<path class="st0" d="M115.5,53c0,18.1-4.8,24-18.3,24c-13.5,0-18.3-5.9-18.3-24c0-18.1,4.8-24,18.3-24
		C110.8,29,115.5,34.9,115.5,53z M85.2,53c0,14.2,3,18.7,12.1,18.7c9.1,0,12.1-4.6,12.1-18.7c0-14.2-3-18.7-12.1-18.7
		C88.1,34.3,85.2,38.9,85.2,53z"/>
	<path class="st0" d="M160.1,53c0,17.9-4.8,23.8-18.1,23.8c-6.4,0-11.7-0.3-16.5-0.6V29.9c4.8-0.3,10.1-0.6,16.5-0.6
		C155.3,29.3,160.1,35.1,160.1,53z M153.9,53c0-14-3-18.7-11.9-18.7c-4.1,0-7.5,0.1-10.6,0.1v37c3,0.1,6.6,0.1,10.6,0.1
		C150.9,71.6,153.9,67,153.9,53z"/>
</g>
</svg>
