<?xml version="1.0" encoding="utf-8"?>
<!-- Generator: Adobe Illustrator 21.0.2, SVG Export Plug-In . SVG Version: 6.00 Build 0)  -->
<svg version="1.1" id="Layer_1" xmlns="http://www.w3.org/2000/svg" xmlns:xlink="http://www.w3.org/1999/xlink" x="0px" y="0px"
	 viewBox="0 0 160 66" style="enable-background:new 0 0 160 66;" xml:space="preserve">
<style type="text/css">
	.st0{fill:#FFFFFF;}
</style>
<g>
	<polygon class="st0" points="16.6,27.9 8.9,27.9 8.9,19.1 16.6,19.1 16.6,14.7 8.9,14.7 8.9,7 16.6,7 16.6,1.5 2.3,1.5 2.3,33.4 
		1.2,33.4 1.2,37.8 7.8,37.8 7.8,64.2 13.3,64.2 13.3,37.8 18.8,37.8 18.8,33.4 16.6,33.4 	"/>
	<polygon class="st0" points="41.9,33.4 47.4,33.4 47.4,64.2 52.9,64.2 52.9,33.4 56.2,33.4 56.2,27.9 48.5,27.9 48.5,19.1 
		56.2,19.1 56.2,14.7 48.5,14.7 48.5,7 56.2,7 56.2,1.5 41.9,1.5 	"/>
	<path class="st0" d="M79.5,33.4l-6.1-13.9c2.6-1.5,4.1-4.4,4.1-8.4c0-3.2-0.8-5.6-2.3-7.2c-1.5-1.7-4-2.5-7.2-2.5h-7.4v31.9h-2.2
		v30.8h5.5v-17c0-2-0.2-4-0.6-5.1h0.3l9.7,22h7V33.4L79.5,33.4L79.5,33.4z M66.1,7h1.4c1.3,0,2.3,0.2,3,0.9s1,1.8,1,3.4
		c0,1.5-0.3,2.6-0.9,3.4s-1.5,1.1-3,1.1h-1.5V7z M75.3,55.4l-9.6-22h0.4V21.3h2.1l5,12.1h1.8v16.7c0,2.1,0.3,4.2,0.6,5.3H75.3z"/>
	<polygon class="st0" points="84.9,33.4 90.4,33.4 90.4,20.5 98.1,1.5 91.9,1.5 87.7,13.9 83.5,1.5 77.4,1.5 84.9,20.7 	"/>
	<polygon class="st0" points="152.7,1.5 148.5,13.9 144.3,1.5 138.1,1.5 145.4,20.7 145.4,33.4 150.9,33.4 150.9,20.5 158.7,1.5 	
		"/>
	<path class="st0" d="M35.3,45.5h-7.7V33.4h5.1L40,1.5h-5.8l-4.1,19.3c-0.4,2.1-0.9,4.5-1.1,7c-0.3-3.1-0.8-5.5-1.1-7.2L23.9,1.5
		h-5.9l7.4,31.9h-3.2v30.8h5.5V51h7.7v13.2h5.5V33.4h-5.5L35.3,45.5z"/>
	<path class="st0" d="M116.7,5.7c-2.1-2.8-5-4.2-8.6-4.2h-8.9v31.4c0-0.1-1.4-0.2-2.3-0.2c-4.1,0-7,1.4-9.4,4.3
		c-2.3,2.9-3.3,6.8-3.3,11.9c0,5.3,1,9.2,3,12s5,4.2,8.6,4.2c3.1,0,5.6-0.6,8.9-1.8V46.6h-9.9v5.5h4.4v7.3c-1.1,0.2-2.2,0.3-3.2,0.3
		c-1.8,0-3.3-1-4.2-2.9c-1-1.8-1.4-4.5-1.4-8c0-3.4,0.7-6.2,1.9-8.1c1.3-2,3.1-3,5.3-3c1.5,0,3.2,0.6,5,1.5l1.9-4.6
		c-1.1-0.7-2.2-1.2-3.3-1.2h6.4c4,0,7-1.5,9.1-4.3c2.1-2.8,3.2-6.8,3.2-12C119.6,12.3,118.7,8.4,116.7,5.7z M112.2,25.4
		c-1,1.8-2.6,2.5-4.7,2.5h-1.7V7h2.1c3.9,0,5.8,3.4,5.8,10.5C113.7,21,113.2,23.5,112.2,25.4z"/>
	<path class="st0" d="M135.1,1.5h-7.9l-7.7,31.7c0.2,0.1,0.4,0.2,0.8,0.2h5.1l1.8-7.7h8.1l1.8,7.7h5.8L135.1,1.5z M128.1,20.2
		c1.2-5.5,2-8.8,2.2-10.2s0.6-2.9,0.7-4.1c0.1,0.6,0.3,1.8,0.7,3.5c0.3,1.8,0.6,3,0.7,3.4l1.7,7.4H128.1z"/>
	<path class="st0" d="M119.4,33.2c-1.2-0.3-2.3-0.6-3.6-0.6c-2.5,0-4.5,0.8-6.1,2.3c-1.5,1.5-2.2,3.7-2.2,6.4c0,1.4,0.2,2.6,0.6,3.7
		c0.3,1.1,0.9,2,1.7,2.9c0.7,0.9,1.8,1.8,3.1,2.6c1.5,1.1,2.6,2,3.3,2.9c0.7,0.9,1,1.9,1,2.9c0,1.1-0.3,1.9-0.9,2.5
		c-0.6,0.7-1.5,0.9-2.6,0.9c-2,0-4.4-0.8-6.6-2.3v5.8c2.2,1.1,4.3,1.7,7,1.7s5-0.8,6.5-2.3s2.2-3.9,2.2-6.7c0-1.9-0.4-3.5-1.2-5
		c-0.9-1.4-2.3-2.9-4.3-4.3c-1.5-1-2.5-1.9-3.2-2.6c-0.7-0.8-0.9-1.8-0.9-2.8c0-1.1,0.2-1.9,0.8-2.5c0.6-0.7,1.2-0.9,2.2-0.9
		c0.9,0,1.7,0.1,2.4,0.4c0.8,0.3,1.4,0.7,2.2,1.1l2-4.7c-0.9-0.6-1.8-0.9-2.6-1.2h-0.8L119.4,33.2z"/>
	<path class="st0" d="M119.3,33.4h0.8c-0.2-0.1-0.4-0.2-0.8-0.2V33.4z"/>
</g>
</svg>
